<svg xmlns="http://www.w3.org/2000/svg" viewBox="0 0 470.6 215.5"><defs><style>.cls-1{fill:#4d4d4d;}.cls-2{fill:#a8a8a8;}</style></defs><g id="Capa_2" data-name="Capa 2"><g id="Capa_1-2" data-name="Capa 1"><path class="cls-1" d="M75.77,34.59v81.9H50.09V84.56H25.68v31.93H0V34.59H25.68v29.5H50.09V34.59Z"/><path class="cls-1" d="M113,55.07V65.13h25.45V84.45H113V96h28.92v20.47H87.34V34.59h54.6V55.07ZM129,19,99,29.85V12.72L129,0Z"/><path class="cls-1" d="M154.26,53.79A35.59,35.59,0,0,1,168.32,39q9.13-5.26,21.52-5.26a43.81,43.81,0,0,1,19,4,35.16,35.16,0,0,1,13.65,11.28,41.06,41.06,0,0,1,7,17H202.44a14.57,14.57,0,0,0-5.26-6.31,13.86,13.86,0,0,0-7.81-2.26,12.26,12.26,0,0,0-10.24,4.86q-3.75,4.86-3.75,13.08t3.75,13.07a12.26,12.26,0,0,0,10.24,4.86,13.86,13.86,0,0,0,7.81-2.26,14.54,14.54,0,0,0,5.26-6.3h27.08a41.07,41.07,0,0,1-7,17,35.16,35.16,0,0,1-13.65,11.28,43.81,43.81,0,0,1-19,4q-12.39,0-21.52-5.26a35.59,35.59,0,0,1-14.06-14.75,46.3,46.3,0,0,1-4.91-21.63A46.34,46.34,0,0,1,154.26,53.79Z"/><path class="cls-1" d="M303.09,34.59V55H281.34v61.54H255.66V55H234.14V34.59Z"/><path class="cls-1" d="M328.71,111.87a40.75,40.75,0,0,1-15.33-15,41.82,41.82,0,0,1-5.66-21.64,41.81,41.81,0,0,1,5.66-21.63,40.31,40.31,0,0,1,15.33-15,44.46,44.46,0,0,1,42.4,0,40,40,0,0,1,15.21,15,42.07,42.07,0,0,1,5.61,21.63,42.08,42.08,0,0,1-5.61,21.64,40.31,40.31,0,0,1-15.27,15,44,44,0,0,1-42.34,0Zm33-23.43q4.17-4.92,4.16-13.25t-4.16-13.36q-4.17-4.9-11.8-4.91T338,61.83q-4.17,4.92-4.17,13.36T338,88.44q4.16,4.92,11.91,4.92T361.74,88.44Z"/><path class="cls-1" d="M442.37,116.49,427,87.11h-.11v29.38H401.19V34.59h38.17q10,0,17,3.53A24.48,24.48,0,0,1,467,47.72a26.72,26.72,0,0,1,3.53,13.71A24.32,24.32,0,0,1,465.91,76a25.07,25.07,0,0,1-13.13,9.14l17.82,31.35ZM426.87,70h10.18q3.7,0,5.55-1.68t1.85-5.26A6.73,6.73,0,0,0,442.54,58a7.54,7.54,0,0,0-5.49-1.85H426.87Z"/><path class="cls-2" d="M69.24,133.68A38.06,38.06,0,0,1,83.7,148.54a46.88,46.88,0,0,1,0,43.15,38.45,38.45,0,0,1-14.46,14.93A40,40,0,0,1,48.7,212a40.17,40.17,0,0,1-20.64-5.37,38.74,38.74,0,0,1-14.52-14.93,46.41,46.41,0,0,1,0-43.15,38.35,38.35,0,0,1,14.52-14.86,40.43,40.43,0,0,1,20.64-5.32A40.24,40.24,0,0,1,69.24,133.68ZM34.71,144.2a24.56,24.56,0,0,0-9.55,10.3,37.46,37.46,0,0,0,0,31.23A24.44,24.44,0,0,0,34.71,196a27.18,27.18,0,0,0,14,3.59A26.7,26.7,0,0,0,62.53,196,24.47,24.47,0,0,0,72,185.73a37.36,37.36,0,0,0,0-31.23,24.59,24.59,0,0,0-9.48-10.3,26.69,26.69,0,0,0-13.83-3.58A27.17,27.17,0,0,0,34.71,144.2Z"/><path class="cls-2" d="M196.66,129.4v81.67H183.47V129.4Z"/><path class="cls-2" d="M297.3,130.67v80.4H284V150.8l-23.25,60.27H249.18L225.81,150.8v60.27H212.62v-80.4h16l26.61,64.2,26.14-64.2Z"/><path class="cls-2" d="M326.34,179.37v31.7H313.15V129.4h27.77q14.11,0,21.22,6.71t7.12,18.39q0,11.56-7.29,18.22t-21.05,6.65Zm29.5-24.87q0-6.94-3.88-10.59t-12.43-3.64H326.34v28.34h13.19Q355.84,168.61,355.84,154.5Z"/><path class="cls-2" d="M439.19,133.68a38.06,38.06,0,0,1,14.46,14.86,46.88,46.88,0,0,1,0,43.15,38.45,38.45,0,0,1-14.46,14.93,42.16,42.16,0,0,1-41.18,0,38.74,38.74,0,0,1-14.52-14.93,46.41,46.41,0,0,1,0-43.15A38.35,38.35,0,0,1,398,133.68a42.5,42.5,0,0,1,41.18,0ZM404.66,144.2a24.56,24.56,0,0,0-9.55,10.3,37.46,37.46,0,0,0,0,31.23,24.44,24.44,0,0,0,9.55,10.3,27.18,27.18,0,0,0,14,3.59A26.7,26.7,0,0,0,432.48,196a24.56,24.56,0,0,0,9.49-10.3,37.46,37.46,0,0,0,0-31.23,24.68,24.68,0,0,0-9.49-10.3,26.69,26.69,0,0,0-13.83-3.58A27.17,27.17,0,0,0,404.66,144.2Z"/><path class="cls-2" d="M106.77,186.78h0c.13.52.59-.54.82,0,.38,1.21-1.78.58-1.69,1.78,0,.61.48.35.81.88a26.18,26.18,0,0,0,5.07-8.74c0-.66-.74-.67-.39-1.26l1,0a69,69,0,0,1,4.79-7.91c.06-.32-.24-.29-.13-.69.67-.14.93-.74,1.12-1.38-.5-.25-1.19.4-1.12,1.24-1.55.86-1.85,3.06-3.35,4,.27-2.3,2.18-4,3-6.11a1.45,1.45,0,0,0,2-1.23c-.14-.23-.58-.16-.81-.29.31-1,.44-1.62,1.53-2-.23-.46,0-.51,0-1.11q4.27-7.23,8.21-14.84c1,.34-.09,1.22-.45,1.41-.11,2.1-1.83,3-1.74,4.86-.82.36-.9,1.52-1.82,1.78a.65.65,0,0,0,.28.58,8,8,0,0,0-1.84,3.74c-1.19.58-2.79,2.52-1.18,3.61,0,.71-1,1-.72,1.54,1.43.72,2-1.73,1.14-2.35,1.22-2,1.84-3.77,3.11-5.7.42-.38.43.3,1,.16.54-.67-.28-1.17-.22-1.82.48-.56,1.27-.83,1.67-1.51,0-.49-.23-.61-.42-.84a36.22,36.22,0,0,0,2.56-5c-.16-.68-1.33-.83-.92-1.7.57-.09.33.6.83.59.64-.16.63-1,1.25-1.24.16-.94-1.1-.48-.8-1.57.65-.13.35.67.94.59.28,0,.37-.27.56-.41.19-.78-.54-.67-.52-1.28.11-1.32,1.5-1.26,1.69-2.48-.88-.95-.62-2.51-.06-3.64l1.09,0c-.21-.85-.1-2-.64-2.55,0-.45.53-.29.57-.69-.14-.61-.86-.4-1.08,0-1.65-1.07-2.57-2.87-4.82-3.32-2,.23-3.57-1-5.16-1.53,3-.58,7.22.06,10.76,0,.1.58-.67.24-.56.83,4.55,1,9.42.55,14.24,1.42.6,0,.76-.43,1.24-.53,2.5.45,4.67-.55,7.34-.11.86.12,1.61.88,2.29.88s1.08-.73,1.65-.8,1,.42,1.63.44c1.39.08,2.86-.8,4.37-.47.24-.78-.78-.32-.66-1l9.65.2c-.42,1.56-2.45,1.39-4,1.75-.62.15-.86.7-1.77.53-2.59,1.1-4,3.5-6,5.32-.09-.58.27-.66.3-1.12-.65.32-1.56.35-1.4,1.52-1.09,0-1.22,1-1.94,1.36.07.2.19.37.26.58,1-.32.85-1.78,2.08-1.79-.5,1-1.19,1.88-1.69,2.91-.43.3-.74-.3-1.1,0a15.93,15.93,0,0,0-1,2.08c-.41.09-.4-.24-.83-.15a11.76,11.76,0,0,0-1.65,1.79c-.07.42.39.31.24.84-1.24,2.45-3.42,3.86-3.95,7.07-1.2,1.58-2.69,2.85-3.11,5.26a9.56,9.56,0,0,0-2.55,4.43c-.31.15-.67.22-1,.4-1.46,3-3.87,5-5.33,8,.57.56.54-.45,1.22-.24a5,5,0,0,1-2,3.31c-.06-.78.26-1.15.2-2-1.17.33-1.59,1.47-1.7,2.92-1.45.42-1.6,2.21-2.4,3.3,0,.59.63.48.66,1-.16.65-.77.8-1.1,1.25-.42,1.6-1.4,2.61-2.14,4s-1.66,2.38-2,3.89c-.32.2-.62.48-1,.66-.18,1.23-1.1,2.76-.36,4.07,0,.57-.45.55-.3,1.24,1.1.55,2.16.73,3,1.77.43-.06.5-.53,1-.55,2.88.74,5.31-.52,8,.61.61.07.72-.38,1.09-.56,2.3.27,5.31-.87,7.76,0,2.08-1.07,4.49-.4,6.69-.71.44-.06.81-.44,1.22-.53s1,.2,1.49.17c1.7-.06,3.23-1.1,4.94-1a6.58,6.58,0,0,1,3.81-.91c.1,1.61-.83,2.07-1.29,3.06,0,.57.63.58.53,1.28-.46.65-1.38.83-2,1.34a3.13,3.13,0,0,0,.39,1c-.35,1.62-2,1.91-2.25,3.6-.5.43-1.37.44-1.65,1.08a1.24,1.24,0,0,1-.59,1.67c-.31.54.27.56.26,1.14-.88.68-2.37,1.73-1.57,3.32a14.92,14.92,0,0,0-1.56,2.64c.11.52.6.6,1.08.72-.41.64-1.72.28-2.19.8-1.28-.72-3.14-.85-4.47-1.5-1.11.72-3-.3-4.21.19-1.65-1-3.66-.06-5.57-.41-1.24-.2-2.34-.9-3.51-1.05-1.77-.23-3.49.25-5.19,0-.76-.09-1.35-.78-2.15-.74-.49.07-.56.65-1.09.67s-.27-.73-.54-1a14.19,14.19,0,0,0-2.18.51c.26-.47.06-.61-.26-.84-1.19.35-2.37,1.31-3.4.35-.5.05-.51.62-1,.67a11.59,11.59,0,0,0-1.75-.16c-1.55-1.36-5.19-.33-7-.87-.57,0-.75.46-1.25.54-.46-.14-.57-.65-1.21-.59-.59-.12-.57.44-1,.54a2.93,2.93,0,0,0-2.18.23c-1.68-.71-4.94.35-6.81.27a21.63,21.63,0,0,0-3.23-.48c-1,0-2,.63-2.88.35a5.84,5.84,0,0,1-1.79.81c0,.66.55,0,1,.15a3.92,3.92,0,0,1-1,1l-13.33-.29V213a16.6,16.6,0,0,0,7-1.5c1.14-1.65,3.81-1.67,4.69-3.57-.27-.53-.43-.58-1-.3.15-.42.31-.84.44-1.26,2,.27,2.51-1.12,3.32-2.16.12-.67-.47-.64-.38-1.27.47-.38.91-.28,1.36-.41s-.33-.35-.12-.83c3.12-.59,1.79-5.09,4.75-5.79-.11-.7.57-1.19.3-1.95,1-.19,1.4-1.1,2.1-1.64-.57-2.5,2.48-3.4,2.71-6,1.58-1.35,1.75-4,3.78-5.1.54.94-.5,3.79-1.57,3.05a4.81,4.81,0,0,0-1.39,2.47m16.57-24.6h.54c0-1.14,1.35-.95,1.15-2.36-.4,0-.58.24-1,.25-.08.55-.1,1.15-.83,1,0,.41-.1.91.12,1.13m9-21.69h0c.32-.14.07-.89.16-1.24l-.54,0c0,.49-.25,1.34.38,1.26M119,167.15h0a1.36,1.36,0,0,0,.13-.86h-.67c0,.45.07.85.54.87m-15.65,24.77h0c0,.61.66.51.65,1.11-1,1.9-1.84,4.07-3.51,5.28.86.59,1.89-.76,2.74-1.07.79-2.35,2.43-3.67,1.92-6.69-.25-.07-.33-.31-.67-.29a5.42,5.42,0,0,1-1.13,1.66m-3.36,5a.5.5,0,0,0,1-.25c-.42,0-.83,0-1,.25"/></g></g></svg>