<svg xmlns="http://www.w3.org/2000/svg" viewBox="0 0 471.96 216.25"><defs><style>.cls-1{fill:#fff;stroke:#363636;stroke-miterlimit:10;}.cls-2{fill:#e30613;}.cls-3{fill:#cb0613;}</style></defs><g id="Capa_2" data-name="Capa 2"><g id="Capa_1-2" data-name="Capa 1"><path class="cls-1" d="M76.27,35.34v81.91H50.59V85.32H26.18v31.93H.5V35.34H26.18v29.5H50.59V35.34Z"/><path class="cls-1" d="M113.52,55.82V65.89H139V85.2H113.52V96.77h28.92v20.48H87.84V35.34h54.6V55.82Zm16-36.09-30,10.87V13.48l30-12.72Z"/><path class="cls-1" d="M154.76,54.55A35.59,35.59,0,0,1,168.82,39.8q9.13-5.26,21.52-5.26a43.81,43.81,0,0,1,19,4A35.23,35.23,0,0,1,223,49.8a41.06,41.06,0,0,1,7,17H202.94a14.54,14.54,0,0,0-5.26-6.3,13.79,13.79,0,0,0-7.81-2.26,12.26,12.26,0,0,0-10.24,4.86q-3.75,4.86-3.75,13.07t3.75,13.07a12.26,12.26,0,0,0,10.24,4.86,13.86,13.86,0,0,0,7.81-2.25,14.63,14.63,0,0,0,5.26-6.31H230a41.06,41.06,0,0,1-7,17,35.16,35.16,0,0,1-13.65,11.28,43.81,43.81,0,0,1-19,4q-12.39,0-21.52-5.27a35.53,35.53,0,0,1-14.06-14.75,46.27,46.27,0,0,1-4.91-21.63A46.27,46.27,0,0,1,154.76,54.55Z"/><path class="cls-1" d="M303.59,35.34V55.7H281.84v61.55H256.16V55.7H234.64V35.34Z"/><path class="cls-1" d="M329.21,112.62a40.61,40.61,0,0,1-15.33-15A41.81,41.81,0,0,1,308.22,76a41.81,41.81,0,0,1,5.66-21.63,40.24,40.24,0,0,1,15.33-15,44.46,44.46,0,0,1,42.4,0,39.92,39.92,0,0,1,15.21,15A42.07,42.07,0,0,1,392.43,76a42.07,42.07,0,0,1-5.61,21.63,40.17,40.17,0,0,1-15.27,15,43.91,43.91,0,0,1-42.34,0Zm33-23.42q4.17-4.92,4.16-13.25t-4.16-13.36q-4.17-4.92-11.8-4.92t-11.91,4.92q-4.17,4.92-4.17,13.36t4.17,13.25q4.16,4.9,11.91,4.91T362.24,89.2Z"/><path class="cls-1" d="M442.87,117.25,427.48,87.86h-.11v29.39H401.69V35.34h38.17q10,0,17,3.53a24.6,24.6,0,0,1,10.58,9.6A26.72,26.72,0,0,1,471,62.18a24.33,24.33,0,0,1-4.57,14.58,25.12,25.12,0,0,1-13.13,9.14l17.82,31.35Zm-15.5-46.51h10.18q3.7,0,5.55-1.67T445,63.8A6.74,6.74,0,0,0,443,58.71a7.58,7.58,0,0,0-5.49-1.85H427.37Z"/><path class="cls-2" d="M69.74,134.43A38,38,0,0,1,84.2,149.3a46.88,46.88,0,0,1,0,43.15,38.42,38.42,0,0,1-14.46,14.92,39.89,39.89,0,0,1-20.54,5.38,40.08,40.08,0,0,1-20.64-5.38A38.71,38.71,0,0,1,14,192.45a46.41,46.41,0,0,1,0-43.15,38.31,38.31,0,0,1,14.52-14.87,40.52,40.52,0,0,1,20.64-5.32A40.34,40.34,0,0,1,69.74,134.43ZM35.21,145a24.44,24.44,0,0,0-9.55,10.3,37.46,37.46,0,0,0,0,31.23,24.5,24.5,0,0,0,9.55,10.3,27.17,27.17,0,0,0,14,3.58A26.69,26.69,0,0,0,63,196.79a24.53,24.53,0,0,0,9.48-10.3,37.36,37.36,0,0,0,0-31.23A24.47,24.47,0,0,0,63,145a26.7,26.7,0,0,0-13.83-3.59A27.18,27.18,0,0,0,35.21,145Z"/><path class="cls-2" d="M197.16,130.15v81.67H184V130.15Z"/><path class="cls-2" d="M297.8,131.42v80.4H284.5V151.55l-23.25,60.27H249.68l-23.37-60.27v60.27H213.12v-80.4h16l26.61,64.21,26.14-64.21Z"/><path class="cls-2" d="M326.84,180.13v31.69H313.65V130.15h27.77q14.11,0,21.22,6.71t7.12,18.4q0,11.56-7.29,18.22t-21.05,6.65Zm29.5-24.87q0-6.94-3.88-10.59T340,141H326.84v28.34H340Q356.34,169.37,356.34,155.26Z"/><path class="cls-2" d="M439.69,134.43a38,38,0,0,1,14.46,14.87,46.88,46.88,0,0,1,0,43.15,38.42,38.42,0,0,1-14.46,14.92,42.09,42.09,0,0,1-41.18,0A38.71,38.71,0,0,1,384,192.45a46.41,46.41,0,0,1,0-43.15,38.31,38.31,0,0,1,14.52-14.87,42.5,42.5,0,0,1,41.18,0ZM405.16,145a24.44,24.44,0,0,0-9.55,10.3,37.46,37.46,0,0,0,0,31.23,24.5,24.5,0,0,0,9.55,10.3,27.17,27.17,0,0,0,14,3.58A26.69,26.69,0,0,0,433,196.79a24.62,24.62,0,0,0,9.49-10.3,37.46,37.46,0,0,0,0-31.23A24.56,24.56,0,0,0,433,145a26.7,26.7,0,0,0-13.83-3.59A27.18,27.18,0,0,0,405.16,145Z"/><path class="cls-3" d="M107.27,187.54h0c.13.51.59-.55.82,0,.38,1.2-1.78.58-1.69,1.77,0,.61.48.35.81.89a26.13,26.13,0,0,0,5.07-8.75c0-.65-.74-.67-.39-1.25l1,0a67.27,67.27,0,0,1,4.79-7.91c.06-.32-.24-.3-.13-.7.67-.13.93-.73,1.12-1.38-.5-.25-1.19.4-1.12,1.24-1.55.87-1.85,3.07-3.35,4,.27-2.3,2.18-4,3-6.12a1.45,1.45,0,0,0,2-1.22c-.14-.23-.58-.16-.81-.29.31-1,.44-1.63,1.53-2-.23-.45,0-.51,0-1.1q4.27-7.23,8.21-14.84c1,.33-.09,1.21-.45,1.4-.11,2.1-1.83,3-1.74,4.86-.82.37-.9,1.52-1.82,1.79a.67.67,0,0,0,.28.58,7.94,7.94,0,0,0-1.84,3.74c-1.19.58-2.79,2.52-1.18,3.61,0,.7-1,.95-.72,1.54,1.43.72,2-1.74,1.14-2.36,1.22-2,1.84-3.76,3.11-5.69.42-.38.43.29,1,.15.54-.66-.28-1.16-.22-1.81.48-.56,1.27-.84,1.67-1.52,0-.48-.23-.61-.42-.83a36.8,36.8,0,0,0,2.56-5c-.16-.68-1.33-.83-.92-1.71.57-.08.33.61.83.59s.63-1,1.25-1.24c.16-.94-1.1-.48-.8-1.56.65-.14.35.66.94.58.28,0,.37-.27.56-.41.19-.78-.54-.67-.52-1.27.11-1.32,1.5-1.26,1.69-2.48-.88-1-.62-2.52-.06-3.65l1.09,0c-.21-.86-.1-2-.64-2.55,0-.46.53-.3.57-.69-.14-.61-.86-.41-1.08,0-1.65-1.06-2.57-2.86-4.82-3.31-2,.22-3.57-1-5.16-1.53,3-.59,7.22.06,10.76,0,.1.58-.67.25-.56.84,4.55,1,9.42.55,14.24,1.42.6,0,.76-.44,1.24-.54,2.5.46,4.67-.55,7.34-.1.86.12,1.61.88,2.29.87s1.08-.73,1.65-.79,1,.42,1.63.44c1.39.07,2.86-.81,4.37-.47.24-.79-.78-.32-.66-1l9.65.21c-.42,1.56-2.45,1.39-4,1.74-.62.15-.86.71-1.77.53-2.59,1.11-4,3.51-6,5.33-.09-.59.27-.66.3-1.12-.65.31-1.56.35-1.4,1.52-1.09,0-1.22,1-1.94,1.35.07.2.19.38.26.59,1-.33.85-1.79,2.08-1.8-.5,1.06-1.19,1.89-1.69,2.92-.43.29-.74-.3-1.1,0a17.26,17.26,0,0,0-1,2.08c-.41.1-.4-.23-.83-.15a12.33,12.33,0,0,0-1.65,1.8c-.07.42.39.31.24.83-1.24,2.46-3.42,3.86-3.95,7.08-1.2,1.57-2.69,2.85-3.11,5.25a9.6,9.6,0,0,0-2.55,4.44,9,9,0,0,0-1,.4c-1.46,3-3.87,5-5.33,8,.57.55.54-.46,1.22-.25a5,5,0,0,1-2,3.32c-.06-.79.26-1.15.2-1.95-1.17.33-1.59,1.47-1.7,2.91-1.45.43-1.6,2.22-2.4,3.31,0,.59.63.48.66,1-.16.65-.77.8-1.1,1.25-.42,1.59-1.4,2.6-2.14,4s-1.66,2.39-2,3.9c-.32.2-.62.48-1,.66-.18,1.22-1.1,2.76-.36,4.06,0,.57-.45.56-.3,1.25,1.1.54,2.16.72,3,1.76.43-.06.5-.53,1-.55,2.88.75,5.31-.52,8,.62.61.07.72-.39,1.09-.56,2.3.27,5.31-.88,7.76,0,2.08-1.07,4.49-.41,6.69-.72.44-.05.81-.43,1.22-.52s1,.19,1.49.17c1.7-.07,3.23-1.1,4.94-1a6.66,6.66,0,0,1,3.81-.9c.1,1.6-.83,2.06-1.29,3.06,0,.56.63.57.53,1.28-.46.64-1.38.82-2,1.34a3.13,3.13,0,0,0,.39,1c-.35,1.62-2,1.9-2.25,3.6-.5.42-1.37.43-1.65,1.08a1.24,1.24,0,0,1-.59,1.67c-.31.54.27.55.26,1.13-.88.68-2.37,1.73-1.57,3.33a14.57,14.57,0,0,0-1.56,2.64c.11.51.6.6,1.08.71-.41.64-1.72.28-2.19.8-1.28-.72-3.14-.85-4.47-1.5-1.11.72-3-.29-4.21.2-1.65-1-3.66-.07-5.57-.41-1.24-.21-2.34-.91-3.51-1-1.77-.23-3.49.25-5.19,0-.76-.08-1.35-.77-2.15-.73-.49.07-.56.65-1.09.66s-.27-.73-.54-1a14.19,14.19,0,0,0-2.18.52c.26-.48.06-.61-.26-.84-1.19.34-2.37,1.3-3.4.35-.5.05-.51.61-1,.67a11.59,11.59,0,0,0-1.75-.16c-1.55-1.37-5.19-.34-7-.88-.57,0-.75.47-1.25.54-.46-.13-.57-.64-1.21-.59-.59-.12-.57.44-1,.55a2.83,2.83,0,0,0-2.18.23c-1.68-.72-4.94.34-6.81.27a20.25,20.25,0,0,0-3.23-.49c-1,0-2,.64-2.88.36a5.83,5.83,0,0,1-1.79.8c0,.66.55,0,1,.16a3.88,3.88,0,0,1-1,1l-13.33-.29v-.84a16.76,16.76,0,0,0,7-1.51c1.14-1.65,3.81-1.66,4.69-3.56-.27-.54-.43-.59-1-.31.15-.41.31-.83.44-1.25,2,.27,2.51-1.12,3.32-2.17.12-.67-.47-.64-.38-1.26.47-.39.91-.28,1.36-.42s-.33-.34-.12-.82c3.12-.6,1.79-5.09,4.75-5.8-.11-.69.57-1.18.3-1.94,1-.19,1.4-1.1,2.1-1.65-.57-2.5,2.48-3.39,2.71-6,1.58-1.35,1.75-4,3.78-5.1.54,1-.5,3.8-1.57,3.05a4.84,4.84,0,0,0-1.39,2.48m16.57-24.61h0l.54,0c0-1.14,1.35-1,1.15-2.36-.4,0-.58.23-1,.25-.08.54-.1,1.15-.83,1,0,.41-.1.91.12,1.12m9-21.69h0c.32-.14.07-.88.16-1.24h-.54c0,.48-.25,1.33.38,1.25m-13.34,26.67h0a1.37,1.37,0,0,0,.13-.86H119c0,.44.07.84.54.87m-15.65,24.77h0c0,.6.66.51.65,1.11-1,1.89-1.84,4.06-3.51,5.28.86.59,1.89-.76,2.74-1.08.79-2.34,2.43-3.67,1.92-6.68-.25-.08-.33-.32-.67-.29a5.54,5.54,0,0,1-1.13,1.66m-3.36,5a.5.5,0,0,0,1-.26c-.42,0-.83,0-1,.26"/></g></g></svg>